<?xml version="1.0" encoding="utf-8"?>
<!-- Generator: Adobe Illustrator 16.0.0, SVG Export Plug-In . SVG Version: 6.00 Build 0)  -->
<!DOCTYPE svg PUBLIC "-//W3C//DTD SVG 1.1//EN" "http://www.w3.org/Graphics/SVG/1.1/DTD/svg11.dtd">
<svg version="1.1" id="Layer_1" xmlns="http://www.w3.org/2000/svg" xmlns:xlink="http://www.w3.org/1999/xlink" x="0px" y="0px"
	 width="50px" height="50px" viewBox="0 0 50 50" enable-background="new 0 0 50 50" xml:space="preserve">
<g>
	<path fill="#00AAAD" d="M24.857,5c8.961,0,16.531,3.697,16.795,8.127c-0.264,4.424-7.834,8.129-16.795,8.129
		c-8.963,0-16.533-3.699-16.791-8.129C8.324,8.697,15.895,5,24.857,5L24.857,5z"/>
	<path fill="#00AAAD" d="M41.676,37.311c0,4.527-7.705,8.359-16.818,8.359c-9.115,0-16.814-3.832-16.814-8.359v-3.99
		c2.877,3.453,9.24,5.807,16.814,5.807c7.57,0,13.936-2.355,16.818-5.807V37.311z"/>
	<path fill="#00AAAD" d="M41.676,29.117c0,4.529-7.705,8.355-16.818,8.355c-9.115,0-16.814-3.826-16.814-8.355v-4.161
		c2.877,3.458,9.24,5.803,16.814,5.803c7.57,0,13.936-2.352,16.818-5.803V29.117z"/>
	<path fill="#00AAAD" d="M41.676,20.756c0,4.529-7.705,8.355-16.818,8.355c-9.115,0-16.814-3.827-16.814-8.355v-3.66
		c2.877,3.457,9.24,5.811,16.814,5.811c7.57,0,13.936-2.354,16.818-5.811V20.756z"/>
</g>
</svg>
